<?xml version="1.0" standalone="no"?>
<!DOCTYPE svg PUBLIC "-//W3C//DTD SVG 20010904//EN"
 "http://www.w3.org/TR/2001/REC-SVG-20010904/DTD/svg10.dtd">
<svg version="1.0" xmlns="http://www.w3.org/2000/svg"
 width="1180.000000pt" height="560.000000pt" viewBox="0 0 1180.000000 560.000000"
 preserveAspectRatio="xMidYMid meet">

<g transform="translate(0.000000,560.000000) scale(0.100000,-0.100000)"
fill="#000000" stroke="none">
<path d="M2395 5460 c-11 -5 -37 -11 -58 -15 -21 -3 -43 -14 -50 -25 -6 -11
-19 -20 -28 -20 -25 0 -141 -55 -133 -63 11 -10 -5 -8 -27 3 -13 7 -19 7 -19
0 0 -5 -7 -10 -15 -10 -57 0 -181 -112 -235 -212 -11 -21 -24 -38 -28 -38 -9
0 -32 -49 -32 -67 0 -7 -4 -13 -9 -13 -5 0 -11 -10 -14 -22 -10 -43 -48 -193
-62 -243 -8 -27 -19 -86 -25 -130 -6 -44 -16 -98 -22 -120 -17 -61 -18 -65
-25 -142 -3 -40 -10 -70 -14 -67 -5 3 -9 -33 -9 -80 0 -46 -5 -118 -10 -158
-11 -77 -25 -270 -40 -528 -16 -284 -53 -519 -95 -600 -26 -51 -17 -51 59 0
130 87 173 88 83 1 -28 -28 -53 -46 -55 -41 -8 23 -35 6 -101 -60 -67 -68
-151 -179 -151 -200 0 -5 -3 -10 -7 -10 -7 0 -56 -90 -82 -150 -6 -14 -20 -61
-31 -104 -12 -44 -24 -84 -27 -89 -3 -5 -6 -30 -7 -55 -1 -26 -5 -53 -10 -60
-4 -7 -10 -59 -13 -115 -5 -117 -10 -150 -22 -143 -5 3 -14 -1 -21 -9 -11 -13
-9 -19 11 -36 l24 -21 -25 7 c-21 5 -30 0 -48 -24 -12 -17 -28 -31 -34 -31 -6
0 -19 -10 -29 -22 -19 -21 -19 -21 8 -35 27 -13 28 -17 30 -88 1 -68 0 -75
-18 -75 -10 0 -19 -5 -19 -12 0 -9 -3 -9 -12 0 -29 29 -114 -5 -107 -43 6 -27
27 -30 31 -3 3 20 9 23 44 24 37 1 40 -1 36 -21 -3 -17 2 -24 20 -28 14 -4 30
-18 36 -32 7 -14 19 -28 27 -31 8 -4 15 -14 15 -23 0 -16 18 -56 54 -119 7
-12 23 -34 36 -47 12 -13 20 -31 17 -39 -3 -8 3 -22 13 -31 11 -10 22 -27 26
-39 4 -11 34 -64 68 -116 34 -53 66 -103 71 -112 21 -34 299 -337 323 -351 22
-14 13 10 -18 44 -16 19 -32 42 -36 52 -3 9 -9 15 -14 12 -4 -3 -6 4 -3 14 3
11 12 22 22 24 13 4 12 5 -3 6 -29 2 76 79 162 121 40 19 76 43 83 57 7 13 16
23 20 23 16 0 88 -46 124 -79 36 -32 115 -178 115 -212 0 -9 6 -21 13 -27 10
-9 12 -1 7 41 -3 29 -9 58 -13 65 -6 8 0 15 16 21 31 12 47 46 18 38 -23 -6
-50 18 -29 25 8 3 4 13 -15 30 -15 14 -27 30 -27 37 0 6 -7 11 -16 11 -30 0
-43 32 -44 105 -1 69 -1 69 -16 40 l-14 -30 4 44 c5 54 26 78 52 62 11 -6 14
-11 8 -11 -17 0 -27 -51 -13 -64 9 -8 10 -8 5 2 -4 7 -1 12 7 12 10 0 13 -7
10 -19 -3 -10 2 -30 11 -43 9 -14 14 -27 11 -30 -3 -3 1 -8 10 -11 9 -4 15 -1
15 8 0 8 4 15 8 15 5 0 9 -7 9 -15 0 -8 -4 -15 -9 -15 -4 0 -8 -9 -8 -20 0
-11 5 -20 11 -20 5 0 7 -5 4 -11 -4 -6 2 -13 14 -16 11 -3 18 -10 15 -15 -3
-5 3 -12 14 -15 11 -3 23 -12 26 -20 6 -13 9 -13 31 1 27 18 49 21 40 6 -3 -5
3 -10 13 -10 13 0 21 9 24 25 4 18 2 23 -6 16 -7 -6 -17 -6 -26 -1 -13 8 -12
12 5 24 25 18 14 32 -13 17 -29 -15 -42 -14 -36 4 4 9 0 15 -9 15 -8 0 -17 11
-19 25 -6 30 6 32 25 4 8 -11 18 -16 21 -11 8 13 -4 44 -23 60 -12 10 -13 15
-3 18 6 3 12 14 12 25 0 11 7 19 18 19 13 0 14 2 4 9 -20 12 -19 17 8 39 21
17 26 18 33 6 12 -20 37 -17 37 5 0 27 -24 43 -62 39 -28 -3 -34 -8 -38 -33
-5 -26 -7 -28 -20 -14 -8 9 -23 14 -35 11 -19 -5 -19 -4 3 15 12 11 22 27 22
35 0 9 -10 23 -22 31 l-23 16 28 -2 c22 -1 27 -6 27 -29 0 -31 11 -36 30 -13
7 8 25 14 43 12 23 -1 32 3 35 15 2 12 -3 18 -13 18 -12 0 -16 6 -12 20 3 11
1 20 -4 20 -5 0 -9 8 -9 18 0 9 -11 24 -23 33 -23 17 -117 34 -117 21 1 -21
22 -37 48 -34 25 3 29 0 28 -20 -1 -17 -8 -24 -26 -26 -14 -2 -30 -10 -36 -18
-6 -8 -25 -17 -41 -20 -24 -5 -34 -1 -50 20 -26 33 -41 33 -54 -1 -8 -21 -7
-28 6 -35 38 -22 -6 -42 -58 -27 -18 6 -47 10 -65 11 -27 0 -31 2 -21 14 7 8
14 12 17 9 11 -11 33 75 23 92 -6 11 -5 23 3 35 9 15 8 21 -4 28 -8 5 -15 26
-17 47 -1 21 -9 43 -18 49 -13 10 -14 15 0 47 8 20 24 41 36 47 49 27 -13 90
-102 104 -22 3 -39 11 -39 17 0 6 6 9 14 6 8 -3 20 1 26 9 7 8 19 14 27 14 8
0 27 7 44 15 26 14 28 18 15 31 -18 17 -11 44 11 44 13 0 13 3 3 15 -10 12 -8
16 14 25 26 9 33 34 27 94 -1 11 4 23 10 27 7 4 8 12 3 20 -5 8 -9 54 -10 102
-2 75 -5 90 -23 106 l-20 18 24 13 c25 13 26 33 1 24 -7 -3 -16 2 -19 10 -4
10 -1 16 9 16 10 0 14 6 10 15 -3 9 -15 48 -26 88 -11 40 -25 86 -30 102 -33
115 -37 261 -5 235 21 -18 29 9 22 76 -4 43 -3 54 9 54 20 0 17 27 -3 34 -10
3 63 4 163 2 160 -4 186 -6 222 -25 23 -12 56 -21 74 -21 35 0 84 -28 154 -89
47 -41 124 -85 124 -71 0 5 6 7 13 5 6 -2 46 -9 88 -14 50 -6 99 -20 142 -40
72 -34 117 -44 282 -61 102 -10 112 -13 138 -41 16 -16 54 -48 85 -71 64 -47
148 -128 180 -173 20 -28 21 -28 22 -8 0 14 -20 43 -50 74 -32 33 -50 60 -50
76 0 15 4 22 11 17 7 -4 10 -1 7 7 -3 8 -18 21 -34 29 -16 8 -30 18 -32 23 -2
4 -10 7 -18 7 -19 0 -94 48 -94 59 0 5 15 13 33 16 46 10 104 45 125 74 21 32
44 121 46 181 0 25 5 48 10 52 16 11 36 90 36 144 0 44 -4 54 -30 77 -16 15
-30 23 -30 17 0 -5 -6 -7 -14 -4 -8 3 -17 1 -21 -5 -3 -6 0 -9 8 -5 19 7 27
-7 20 -34 -5 -22 -5 -22 -25 3 -15 19 -17 29 -8 45 6 11 18 20 28 20 16 1 16
2 0 14 -10 7 -18 24 -18 37 0 22 0 22 -14 3 -24 -31 -26 -12 -5 46 10 30 19
67 19 82 0 15 5 30 10 33 14 9 13 -68 -1 -82 -6 -6 -9 -21 -7 -34 3 -19 7 -15
17 21 7 25 17 54 21 65 16 40 39 142 51 224 16 113 6 554 -16 671 -9 47 -20
121 -25 165 -24 207 -30 244 -45 305 -29 113 -86 274 -111 312 -13 21 -24 44
-24 53 0 8 -5 15 -10 15 -6 0 -14 8 -18 19 -4 10 -20 35 -37 55 -16 21 -41 51
-54 68 -13 16 -35 34 -48 39 -13 5 -27 19 -32 31 -10 26 -76 82 -109 92 -12 4
-34 18 -49 32 -17 15 -38 24 -59 24 -19 0 -34 5 -34 10 0 6 -7 10 -15 10 -9 0
-34 9 -56 21 -22 11 -50 19 -62 18 -12 -1 -29 1 -37 4 -43 16 -84 16 -101 1
-11 -10 -19 -12 -24 -5 -3 6 -2 11 3 11 6 0 13 7 16 16 5 13 -1 15 -41 13 -27
-2 -58 0 -71 5 -13 4 -28 3 -35 -3 -8 -6 -18 -6 -27 -1 -18 12 -38 12 -65 0z
m756 -554 c39 -16 80 -42 102 -64 40 -42 87 -123 87 -152 0 -58 83 -294 126
-360 13 -19 35 -64 50 -100 26 -63 27 -73 27 -265 1 -167 -1 -207 -16 -244
-12 -31 -17 -72 -17 -141 0 -54 -5 -122 -11 -152 -36 -179 -53 -241 -80 -300
-12 -28 -29 -38 -29 -17 0 6 -8 2 -17 -9 -10 -12 -29 -22 -42 -24 -20 -3 -24
1 -25 27 -1 17 -5 40 -9 51 -5 15 3 41 27 89 l35 67 -32 -19 c-18 -10 -53 -27
-79 -37 l-47 -17 -3 -122 -3 -122 -45 3 c-25 1 -58 9 -75 16 -16 8 -49 17 -72
21 -41 6 -43 9 -43 40 0 19 -5 37 -10 40 -14 9 -2 25 18 25 16 0 32 13 80 66
11 12 28 26 38 32 15 9 17 13 7 23 -7 7 -13 23 -13 36 0 18 -11 29 -45 45 -34
17 -45 28 -45 45 0 25 31 45 38 25 2 -7 8 -10 13 -6 13 8 11 42 -3 46 -16 6
-3 37 19 45 35 12 42 23 33 48 -8 20 -5 28 17 45 l27 21 -42 -7 c-28 -4 -47
-2 -57 6 -12 10 -18 10 -31 0 -13 -11 -18 -10 -36 7 -28 28 -17 67 17 59 15
-4 30 0 41 11 12 13 19 14 22 5 6 -19 29 -14 35 8 3 11 17 24 33 30 32 13 22
29 -19 32 -27 2 -28 5 -25 48 2 25 8 44 13 43 6 -1 16 -3 23 -5 8 -1 19 5 25
14 9 13 8 21 -4 35 -15 17 -32 72 -43 139 -11 67 -78 188 -135 245 -31 31 -67
68 -80 82 -20 24 -31 27 -90 28 -36 0 -77 2 -91 3 -14 1 -43 3 -64 4 -37 2
-38 3 -23 20 24 26 22 103 -3 152 -11 22 -20 47 -20 57 0 10 9 26 20 36 11 9
20 23 20 30 0 7 36 46 79 87 96 91 95 90 151 120 25 14 47 29 49 34 8 19 184
-1 252 -28z m-382 -592 c49 -10 39 -34 -14 -34 -40 0 -93 -15 -105 -31 -3 -3
-25 -8 -50 -11 -25 -3 -39 -4 -32 -1 6 3 12 15 12 27 0 43 97 68 189 50z m11
-79 c31 -18 16 -18 -30 0 -23 9 -28 14 -15 14 11 0 31 -6 45 -14z m-35 -28
c19 -15 13 -37 -11 -37 -8 0 -14 -4 -14 -9 0 -11 -38 -2 -46 10 -3 5 -2 18 1
29 7 23 42 27 70 7z m23 -76 c-23 -28 -83 -46 -115 -34 -19 7 7 25 67 46 66
24 75 21 48 -12z m62 25 c0 -11 -19 -15 -25 -6 -3 5 1 10 9 10 9 0 16 -2 16
-4z m-35 -66 c3 -5 1 -10 -4 -10 -6 0 -11 -9 -11 -21 0 -17 4 -20 28 -15 33 7
42 1 65 -44 30 -60 13 -212 -29 -261 -8 -8 -14 -20 -14 -26 0 -6 -11 -21 -25
-34 -28 -27 -31 -42 -11 -61 14 -15 56 -96 56 -110 0 -4 -11 -8 -25 -8 -14 0
-25 -2 -25 -5 0 -3 11 -18 25 -33 25 -27 34 -72 15 -72 -23 0 -130 77 -140
100 -17 43 -31 123 -29 161 2 25 -4 44 -19 64 -12 15 -22 37 -22 49 0 12 -4
26 -8 31 -14 16 -32 89 -32 129 0 20 -6 45 -12 56 -19 30 6 48 76 56 59 7 96
27 96 51 0 15 36 18 45 3z m255 -220 c-27 -21 -40 -25 -40 -12 0 15 24 32 45
32 19 0 18 -2 -5 -20z m-463 -230 c2 -22 12 -58 23 -80 23 -46 24 -50 8 -50
-16 0 -58 41 -58 57 0 7 -5 13 -11 13 -10 0 -7 31 7 83 10 32 29 18 31 -23z
m934 -316 c-9 -28 -9 -29 -10 -3 -1 14 2 29 6 32 11 12 13 2 4 -29z m-695
-227 c17 -8 37 -24 45 -33 13 -16 12 -17 -6 -10 -11 4 -53 17 -94 29 -59 18
-69 23 -50 28 34 9 70 5 105 -14z m611 -59 c-3 -7 -5 -2 -5 12 0 14 2 19 5 13
2 -7 2 -19 0 -25z m-77 12 c0 -5 -5 -10 -11 -10 -5 0 -7 5 -4 10 3 6 8 10 11
10 2 0 4 -4 4 -10z m-1701 -199 c-17 -5 -99 -69 -116 -90 -7 -8 -13 -10 -13
-5 0 6 10 20 23 31 12 12 37 37 56 57 28 29 37 33 49 24 12 -10 12 -13 1 -17z
m-145 -125 c-3 -9 -10 -13 -15 -10 -5 3 -3 11 4 19 15 16 19 13 11 -9z m366
-393 c0 -10 -6 -10 -25 -1 -25 11 -30 19 -19 31 9 8 44 -15 44 -30z m16 -60
c-10 -10 -19 5 -10 18 6 11 8 11 12 0 2 -7 1 -15 -2 -18z m-71 -51 c-8 -9 -25
20 -18 31 3 5 10 2 15 -7 6 -10 7 -20 3 -24z m40 -161 c-6 -5 -25 10 -25 20 0
5 6 4 14 -3 8 -7 12 -15 11 -17z m20 -41 c3 -5 1 -10 -4 -10 -6 0 -11 5 -11
10 0 6 2 10 4 10 3 0 8 -4 11 -10z m25 -70 c-11 -7 -11 -10 -2 -10 7 0 11 -4
7 -10 -8 -13 -35 -1 -35 16 0 8 10 14 23 14 18 0 19 -2 7 -10z m-44 -47 c-10
-10 -19 5 -10 18 6 11 8 11 12 0 2 -7 1 -15 -2 -18z m-66 -183 c0 -13 -11 -13
-30 0 -12 8 -11 10 8 10 12 0 22 -4 22 -10z m50 -36 c0 -24 -1 -24 -17 -9 -14
14 -14 18 -2 26 19 12 19 12 19 -17z m-743 -76 c-3 -7 -5 -2 -5 12 0 14 2 19
5 13 2 -7 2 -19 0 -25z m-57 -93 c-7 -9 -15 -13 -19 -10 -3 3 1 10 9 15 21 14
24 12 10 -5z m1204 -341 c9 -8 16 -21 16 -27 0 -6 -7 -1 -16 11 -8 12 -20 20
-25 17 -5 -4 -9 -1 -9 4 0 16 16 13 34 -5z m-234 -78 c0 -3 -4 -8 -10 -11 -5
-3 -10 -1 -10 4 0 6 5 11 10 11 6 0 10 -2 10 -4z"/>
<path d="M3280 4540 c-19 -10 -42 -17 -51 -14 -15 4 -79 -39 -87 -59 -2 -4
-11 -14 -19 -23 -8 -8 -12 -18 -9 -21 7 -8 45 12 124 66 29 20 62 40 73 46 19
10 26 25 12 25 -5 -1 -24 -9 -43 -20z"/>
<path d="M2950 4425 c0 -20 5 -25 25 -25 20 0 25 5 25 25 0 20 -5 25 -25 25
-20 0 -25 -5 -25 -25z"/>
<path d="M3163 4411 c-39 -20 -74 -78 -63 -106 4 -11 6 -23 4 -27 -11 -18 39
-18 69 0 17 11 46 23 62 27 l30 7 -22 18 c-13 10 -23 22 -23 28 0 17 37 42 63
42 25 0 32 -8 28 -37 -1 -9 8 -7 28 4 31 18 32 33 2 33 -9 0 -21 4 -26 9 -20
17 -119 19 -152 2z m57 5 c0 -3 -4 -8 -10 -11 -5 -3 -10 -1 -10 4 0 6 5 11 10
11 6 0 10 -2 10 -4z"/>
<path d="M3353 3829 c-26 -9 -47 -45 -39 -65 8 -21 39 0 55 38 16 34 13 38
-16 27z"/>
<path d="M3476 3575 c-4 -16 -12 -64 -17 -105 -4 -41 -11 -91 -14 -110 -4 -24
-3 -30 3 -20 13 20 45 213 40 242 -3 21 -4 20 -12 -7z"/>
<path d="M3431 3288 c0 -20 -5 -40 -11 -43 -5 -3 -10 -16 -9 -28 0 -14 2 -16
6 -7 2 8 9 24 15 36 5 11 8 34 5 50 -4 26 -4 25 -6 -8z"/>
<path d="M50 4384 c-23 -41 -21 -64 8 -64 23 0 62 -40 62 -63 0 -22 20 -22 58
0 26 15 30 22 25 48 -3 16 -14 49 -25 73 -19 40 -22 42 -63 42 -39 0 -45 -3
-65 -36z"/>
<path d="M17 4101 c-14 -27 -13 -30 5 -34 14 -4 22 2 29 19 12 34 11 44 -5 44
-8 0 -21 -13 -29 -29z"/>
<path d="M37 3833 l-37 -26 0 -271 c0 -149 4 -277 9 -285 7 -11 37 -15 113
-17 141 -5 149 -2 171 49 15 37 16 61 11 160 -7 108 -9 118 -31 132 -15 10
-23 25 -23 45 0 23 -7 33 -31 45 -25 14 -30 21 -25 41 4 16 2 24 -7 24 -15 0
-31 27 -49 85 -16 50 -46 55 -101 18z"/>
<path d="M538 3363 c-2 -5 -3 -21 -3 -38 l0 -30 115 -1 c63 0 121 4 128 9 6 5
12 20 12 32 0 29 -19 36 -47 18 -17 -11 -38 -13 -88 -8 -36 4 -68 11 -71 16
-6 11 -42 12 -46 2z"/>
<path d="M4737 3060 c-4 -25 -13 -90 -22 -145 -8 -55 -21 -125 -29 -155 -8
-30 -14 -79 -14 -108 0 -40 -5 -59 -20 -75 -28 -29 -20 -72 9 -56 13 6 19 21
19 42 0 52 21 201 31 219 5 10 9 32 9 49 0 17 7 73 16 124 8 51 14 106 12 121
-3 24 -4 22 -11 -16z"/>
<path d="M121 3053 c-34 -5 -49 -18 -98 -91 l-23 -33 0 -1235 c1 -1163 2
-1235 18 -1229 9 3 57 11 105 17 82 11 90 14 113 43 26 35 26 40 39 757 3 197
10 307 19 350 11 47 14 115 11 268 -3 164 0 215 12 253 22 68 40 61 48 -19 7
-59 11 -69 46 -102 67 -64 100 -92 108 -92 5 0 14 -13 21 -30 10 -25 18 -30
46 -30 50 0 111 -28 118 -53 11 -43 6 -62 -30 -99 -50 -51 -58 -96 -27 -167
13 -29 23 -70 23 -91 0 -40 18 -67 61 -94 l26 -17 10 39 c7 25 6 43 -1 55 -8
12 -7 25 1 47 7 18 9 38 6 45 -2 8 2 34 11 57 9 24 18 54 20 68 6 48 19 90 27
90 5 0 9 6 9 13 0 12 20 36 55 65 8 7 15 20 14 30 0 14 -2 14 -8 -2 -7 -18 -9
-16 -24 14 -9 18 -17 39 -17 46 0 9 -18 11 -69 7 l-70 -4 -19 38 c-12 23 -22
71 -26 122 -4 46 -13 96 -21 112 -9 16 -15 55 -15 92 0 55 3 67 25 87 16 15
25 35 25 54 1 39 21 66 49 66 11 0 21 5 21 10 0 6 7 10 16 10 36 0 55 48 35
88 -5 9 -17 53 -27 97 -18 81 -34 117 -34 77 0 -16 -9 -24 -37 -31 -53 -15
-79 -14 -116 6 -18 9 -36 17 -42 17 -5 1 -20 11 -33 24 -12 12 -27 20 -32 17
-6 -4 -10 1 -10 9 0 9 -7 16 -15 16 -8 0 -15 9 -15 20 0 11 7 20 15 20 8 0 15
7 15 15 0 8 -9 15 -20 15 -11 0 -20 -6 -20 -14 0 -8 -4 -16 -8 -18 -15 -6 -44
-123 -46 -183 l-1 -60 -32 -3 c-18 -2 -33 -2 -33 0 -1 2 -3 75 -6 163 -3 88
-10 171 -15 185 -6 14 -26 37 -46 53 -36 27 -52 29 -132 20z"/>
<path d="M726 2954 c-9 -8 -16 -19 -16 -24 0 -21 34 -79 43 -73 5 3 6 -3 3
-15 -6 -19 -5 -20 18 -9 36 17 37 83 3 115 -28 26 -31 27 -51 6z"/>
<path d="M2198 2724 c-22 -21 55 -92 78 -73 7 6 18 8 24 4 5 -3 10 -2 10 2 0
11 -80 73 -95 73 -6 0 -14 -3 -17 -6z"/>
<path d="M2410 2690 c0 -22 22 -39 28 -21 3 9 7 9 18 0 8 -7 14 -7 14 -1 0 11
-18 26 -42 35 -13 5 -18 1 -18 -13z"/>
<path d="M4601 2684 c-18 -8 -35 -24 -38 -34 -5 -20 -56 -40 -99 -40 -11 0
-65 -32 -120 -71 -54 -39 -115 -79 -135 -89 -19 -10 -61 -49 -92 -87 -60 -71
-133 -157 -154 -178 -7 -7 -20 -31 -30 -54 -10 -22 -21 -41 -25 -41 -5 0 -8
-5 -8 -12 0 -14 -75 -112 -150 -195 -31 -33 -62 -74 -70 -90 -8 -15 -17 -30
-20 -33 -4 -3 -28 -39 -55 -80 -27 -41 -53 -76 -57 -78 -4 -2 -8 -10 -8 -18 0
-8 -4 -14 -9 -14 -5 0 -13 -10 -17 -22 -4 -13 -10 -25 -14 -28 -7 -5 -135
-191 -141 -206 -10 -23 -83 -124 -89 -124 -4 0 -11 -11 -14 -25 -4 -14 -11
-25 -16 -25 -5 0 -39 -39 -76 -87 -37 -49 -128 -147 -202 -220 -117 -115 -136
-130 -149 -117 -8 8 -19 14 -24 14 -15 0 -10 -18 8 -29 10 -5 14 -13 10 -17
-4 -4 -13 -2 -19 4 -7 7 -18 12 -25 12 -8 0 -4 -9 10 -22 l22 -23 -22 -3 c-13
-2 -28 -11 -35 -20 -7 -10 -35 -23 -63 -30 -27 -7 -57 -19 -65 -27 -8 -7 -24
-15 -35 -19 -11 -3 -1 -4 23 -2 23 2 42 0 42 -4 0 -17 -78 -66 -135 -85 -19
-6 -19 -7 -1 -20 14 -10 15 -17 7 -27 -41 -48 -51 -64 -61 -93 -14 -43 -36
-52 -47 -19 l-8 25 -36 -33 c-20 -18 -39 -43 -43 -56 -4 -12 -12 -22 -17 -22
-6 0 -7 -5 -4 -11 4 -6 -1 -16 -10 -23 -10 -7 -19 -25 -21 -41 -2 -15 -5 -30
-9 -33 -5 -5 -40 36 -40 48 -1 11 -17 30 -26 30 -10 0 -13 -89 -3 -114 3 -9
17 -16 31 -16 23 0 23 -1 9 -22 -21 -30 -20 -38 4 -38 13 0 18 5 14 15 -4 8
-2 15 4 15 6 0 12 -6 14 -12 4 -10 109 -14 471 -16 412 -2 467 -1 467 13 0 8
-8 20 -18 26 -16 10 -18 18 -11 53 5 23 8 78 9 124 0 72 2 82 18 82 14 0 20
14 30 73 15 81 30 127 43 127 5 0 9 9 9 20 0 29 35 60 68 60 15 0 35 9 45 20
18 22 25 22 107 11 30 -5 64 -5 75 0 19 7 19 8 -2 8 -12 1 -27 10 -33 21 -8
15 -17 19 -34 14 -18 -4 -29 2 -50 28 -14 18 -26 27 -26 21 0 -19 -24 -16 -43
5 -55 57 -67 76 -56 83 17 10 41 -7 64 -45 15 -25 19 -27 22 -13 5 18 33 24
33 7 0 -5 15 -10 34 -10 19 0 36 -5 38 -11 2 -6 19 -9 38 -7 l35 3 -44 23
c-25 12 -51 22 -58 22 -7 0 -13 3 -13 8 0 4 -14 13 -30 20 -33 15 -60 38 -60
52 0 5 7 7 15 4 23 -9 18 4 -15 39 -16 18 -30 35 -30 40 0 14 17 7 40 -18 27
-29 86 -36 76 -10 -8 21 10 65 27 65 13 0 47 64 47 88 0 7 4 12 8 12 4 0 14
15 20 34 8 22 21 36 37 40 14 4 25 13 25 22 0 21 32 53 37 37 5 -14 43 15 43
34 0 6 18 33 40 58 22 25 40 53 40 61 0 13 11 18 37 15 7 -1 21 16 33 39 22
44 34 48 62 23 15 -14 22 -14 42 -4 18 10 27 28 36 71 7 31 16 63 20 69 9 15
104 29 145 21 30 -6 133 16 170 37 11 6 35 14 52 18 18 3 35 11 38 16 4 5 20
9 37 9 51 0 168 41 168 59 0 6 -10 17 -21 25 -18 12 -23 29 -28 86 -6 60 -11
75 -31 91 -14 10 -29 19 -33 19 -4 0 -7 6 -5 13 6 35 -17 145 -42 201 -42 90
-47 134 -20 169 12 15 29 27 39 27 10 0 44 29 77 66 68 75 76 89 44 81 -19 -5
-21 -3 -15 20 4 17 1 29 -7 34 -10 6 -8 18 10 54 12 25 22 52 22 60 0 8 5 15
10 15 6 0 10 5 10 10 0 13 -7 12 -49 -6z m-1166 -1765 c11 -17 -1 -21 -15 -4
-8 9 -8 15 -2 15 6 0 14 -5 17 -11z m-1055 -709 c0 -5 -2 -10 -4 -10 -3 0 -8
5 -11 10 -3 6 -1 10 4 10 6 0 11 -4 11 -10z m-22 -68 c2 -7 -2 -10 -12 -6 -9
3 -16 11 -16 16 0 13 23 5 28 -10z m-25 -49 c-7 -2 -19 -2 -25 0 -7 3 -2 5 12
5 14 0 19 -2 13 -5z"/>
<path d="M2481 2613 c-1 -7 -8 -13 -17 -13 -14 0 -14 -3 -3 -16 11 -14 13 -14
21 1 5 9 7 21 4 28 -3 9 -5 9 -5 0z"/>
<path d="M2318 2603 c7 -3 16 -2 19 1 4 3 -2 6 -13 5 -11 0 -14 -3 -6 -6z"/>
<path d="M2160 2593 c0 -5 5 -15 10 -23 8 -13 10 -13 10 2 0 9 6 19 13 21 6 3
2 6 -10 6 -13 1 -23 -2 -23 -6z"/>
<path d="M2485 2560 c-3 -5 -1 -10 4 -10 6 0 11 5 11 10 0 6 -2 10 -4 10 -3 0
-8 -4 -11 -10z"/>
<path d="M2245 2525 c39 -32 55 -32 25 0 -13 14 -31 25 -39 25 -11 -1 -6 -9
14 -25z"/>
<path d="M2430 2534 c0 -8 5 -12 10 -9 6 4 8 11 5 16 -9 14 -15 11 -15 -7z"/>
<path d="M2376 2464 c-9 -8 -16 -21 -16 -27 0 -8 3 -7 9 2 5 8 19 12 35 9 28
-6 33 1 14 20 -16 16 -23 15 -42 -4z"/>
<path d="M2310 2461 c0 -6 5 -13 10 -16 6 -3 10 1 10 9 0 9 -4 16 -10 16 -5 0
-10 -4 -10 -9z"/>
<path d="M4995 2434 c-37 -19 -53 -34 -38 -34 7 0 15 5 18 10 3 6 13 10 21 10
9 0 22 7 30 15 20 19 7 19 -31 -1z"/>
<path d="M2356 2397 c3 -10 9 -15 12 -12 3 3 0 11 -7 18 -10 9 -11 8 -5 -6z"/>
<path d="M4849 2372 c-8 -2 -21 -6 -29 -9 -8 -4 -17 -7 -20 -7 -25 -7 -150
-88 -150 -98 0 -15 21 -9 53 16 18 13 50 30 72 37 22 8 46 20 53 27 7 6 19 12
25 12 7 0 20 7 31 15 18 14 18 14 -1 12 -11 0 -26 -3 -34 -5z"/>
<path d="M5023 2243 c-15 -5 -17 -23 -4 -23 5 0 11 7 15 15 3 8 4 15 3 14 -1
0 -8 -3 -14 -6z"/>
<path d="M4770 2075 c0 -8 7 -15 15 -15 8 0 15 7 15 15 0 8 -7 15 -15 15 -8 0
-15 -7 -15 -15z"/>
<path d="M8745 2013 c-36 -9 -65 -44 -65 -79 0 -17 -6 -37 -14 -43 -7 -6 -16
-26 -20 -44 -3 -17 -10 -52 -16 -77 -5 -25 -21 -110 -35 -189 -14 -79 -30
-151 -35 -161 -6 -10 -10 -29 -10 -42 0 -13 -4 -28 -10 -34 -16 -16 -43 -185
-44 -274 0 -52 -5 -90 -13 -98 -13 -14 -43 -16 -43 -3 0 5 -13 14 -30 21 -28
12 -30 16 -30 67 0 55 -14 83 -43 83 -9 0 -17 -14 -21 -38 -12 -76 -38 -142
-57 -142 -22 0 -40 -51 -32 -90 4 -21 11 -30 25 -30 11 0 34 -6 51 -14 37 -17
133 -24 407 -32 107 -3 273 -14 368 -25 187 -21 298 -23 407 -9 39 5 186 16
329 24 142 9 261 18 264 21 3 3 -5 5 -17 5 -20 0 -21 2 -7 15 8 8 26 15 40 15
16 0 26 6 26 15 0 9 -9 15 -22 15 -28 0 -89 22 -106 38 -7 6 -23 13 -35 13
-31 2 -68 5 -94 7 -18 2 -23 8 -23 32 0 23 -4 30 -20 30 -11 0 -20 5 -20 11 0
7 -11 9 -30 6 -21 -5 -30 -3 -30 7 0 13 -41 36 -65 36 -8 0 -15 9 -15 20 0 13
-7 20 -20 20 -16 0 -20 7 -20 36 0 31 -3 35 -20 29 -16 -5 -20 -2 -20 19 0 35
-10 56 -26 56 -8 0 -14 10 -14 23 0 47 -20 60 -83 52 -43 -6 -58 -12 -62 -26
-6 -17 -8 -17 -21 -5 -8 8 -14 19 -14 25 0 6 -3 11 -7 11 -5 0 -18 15 -30 33
-19 28 -23 51 -29 172 -5 96 -11 145 -20 156 -8 8 -14 20 -14 25 0 5 -9 15
-21 22 -13 8 -19 20 -16 32 11 42 -170 84 -199 46 -16 -23 -24 -20 -24 9 0 18
-5 25 -19 25 -11 0 -21 -6 -23 -12 -4 -10 -14 -8 -40 6 -41 22 -58 61 -58 129
0 25 -3 48 -7 50 -14 8 -88 15 -108 10z m88 -1045 c10 -9 13 -19 8 -22 -15
-10 -101 -2 -101 9 0 6 -3 7 -8 0 -4 -5 -22 -11 -39 -11 -29 -2 -33 1 -33 23
0 25 0 25 78 22 57 -3 83 -9 95 -21z m137 11 c11 -8 12 -12 3 -16 -7 -2 -13
-11 -13 -19 0 -8 -9 -14 -20 -14 -34 0 -25 55 10 59 3 0 12 -4 20 -10z"/>
<path d="M2072 1940 c0 -14 2 -19 5 -12 2 6 2 18 0 25 -3 6 -5 1 -5 -13z"/>
<path d="M423 1843 c-26 -5 -73 -57 -73 -80 0 -9 -8 -22 -17 -29 -15 -11 -15
-13 -3 -14 9 0 22 -9 30 -20 21 -29 39 -25 93 21 48 42 57 62 33 76 -8 4 -15
17 -17 27 -4 21 -13 25 -46 19z"/>
<path d="M2071 1824 c0 -11 3 -14 6 -6 3 7 2 16 -1 19 -3 4 -6 -2 -5 -13z"/>
<path d="M2730 1681 c-29 -8 -35 -46 -7 -46 9 0 17 5 16 10 0 6 9 12 21 15 23
5 29 24 8 27 -7 0 -24 -2 -38 -6z"/>
<path d="M2575 1670 c3 -5 8 -10 11 -10 2 0 4 5 4 10 0 6 -5 10 -11 10 -5 0
-7 -4 -4 -10z"/>
<path d="M2817 1649 c-4 -16 -3 -18 9 -8 7 6 11 15 8 20 -8 13 -11 11 -17 -12z"/>
<path d="M7003 1663 c-12 -2 -35 -16 -51 -31 l-29 -27 5 -105 c4 -99 -5 -170
-38 -300 -29 -117 -65 -160 -134 -160 -108 0 -195 -37 -227 -96 -8 -15 -25
-25 -50 -29 -52 -9 -51 -33 1 -41 26 -4 54 -19 78 -41 72 -66 60 -64 440 -69
l347 -5 48 46 c62 61 64 94 7 153 -33 34 -48 42 -77 42 -103 0 -158 45 -174
140 -13 83 -16 242 -6 359 12 149 -20 187 -140 164z"/>
<path d="M2861 1617 c-22 -22 -13 -40 18 -34 15 3 33 1 38 -4 7 -7 12 -4 15 9
4 15 -2 22 -27 30 -23 7 -37 6 -44 -1z"/>
<path d="M900 1596 c0 -2 7 -9 15 -16 12 -10 15 -10 15 4 0 9 -7 16 -15 16 -8
0 -15 -2 -15 -4z"/>
<path d="M2747 1589 c8 -8 16 -8 30 0 16 9 14 10 -11 11 -22 0 -27 -3 -19 -11z"/>
<path d="M2620 1540 c0 -5 5 -10 10 -10 6 0 10 5 10 10 0 6 -4 10 -10 10 -5 0
-10 -4 -10 -10z"/>
<path d="M2923 1539 c14 -8 22 -8 30 0 8 8 3 11 -18 11 -26 -1 -28 -2 -12 -11z"/>
<path d="M2750 1530 c0 -5 5 -10 10 -10 6 0 10 5 10 10 0 6 -4 10 -10 10 -5 0
-10 -4 -10 -10z"/>
<path d="M2860 1506 c0 -9 5 -16 10 -16 6 0 10 4 10 9 0 6 -4 13 -10 16 -5 3
-10 -1 -10 -9z"/>
<path d="M2943 1506 c-10 -11 -9 -15 2 -20 8 -3 15 -4 15 -2 0 3 3 11 6 20 7
19 -7 20 -23 2z"/>
<path d="M2540 1490 c-22 -22 -25 -36 -11 -45 5 -3 11 5 13 17 2 12 14 28 28
35 18 9 20 13 8 13 -10 0 -27 -9 -38 -20z"/>
<path d="M2790 1486 c0 -9 -7 -16 -15 -16 -8 0 -15 -8 -15 -18 0 -25 11 -34
25 -22 9 7 16 6 25 -5 10 -12 14 -12 26 0 21 20 17 31 -16 55 -25 18 -30 19
-30 6z"/>
<path d="M2585 1460 c-8 -13 3 -30 21 -30 18 0 18 14 0 29 -10 8 -16 9 -21 1z"/>
<path d="M2950 1462 c0 -12 19 -26 26 -19 2 2 -2 10 -11 17 -9 8 -15 8 -15 2z"/>
<path d="M860 1446 c0 -8 5 -18 10 -21 6 -3 10 3 10 14 0 12 -4 21 -10 21 -5
0 -10 -6 -10 -14z"/>
<path d="M448 1433 c6 -2 18 -2 25 0 6 3 1 5 -13 5 -14 0 -19 -2 -12 -5z"/>
<path d="M434 1409 c-3 -5 6 -9 20 -9 31 0 34 6 6 13 -11 3 -23 1 -26 -4z"/>
<path d="M2908 1407 c-11 -9 -14 -22 -11 -40 5 -26 6 -26 19 -10 13 17 15 17
28 1 18 -24 32 -23 39 3 3 13 -2 28 -14 40 -22 22 -37 23 -61 6z"/>
<path d="M888 1383 c-3 -13 -2 -26 3 -29 5 -3 9 -14 9 -24 0 -24 18 -36 33
-21 8 8 8 11 -1 11 -7 0 -12 11 -12 25 0 14 -4 25 -9 25 -5 0 -11 8 -13 18 -3
14 -5 13 -10 -5z"/>
<path d="M2618 1393 c7 -3 16 -2 19 1 4 3 -2 6 -13 5 -11 0 -14 -3 -6 -6z"/>
<path d="M785 1371 c-3 -10 -3 -26 1 -35 4 -10 0 -18 -10 -22 -21 -8 -20 -24
2 -24 9 0 24 -5 32 -11 13 -9 12 -10 -2 -5 -12 3 -15 1 -11 -9 3 -8 -1 -17 -9
-20 -17 -7 -12 -55 6 -56 6 0 2 -4 -9 -9 -11 -5 -14 -9 -7 -9 7 -1 11 -5 7
-11 -3 -5 -13 -6 -22 -3 -11 4 -14 3 -9 -5 4 -7 18 -12 32 -12 14 0 23 -4 20
-9 -4 -5 0 -12 6 -14 8 -3 5 -6 -5 -6 -22 -1 -51 -27 -38 -35 4 -3 11 -24 14
-47 3 -22 13 -47 24 -54 17 -13 16 -14 -9 -15 -26 0 -34 -13 -29 -44 1 -5 -8
-19 -20 -32 -20 -21 -21 -28 -11 -61 25 -83 25 -83 0 -92 -31 -12 -43 10 -24
47 9 17 11 33 6 43 -6 10 -4 25 5 42 10 19 10 27 2 30 -9 3 -9 10 1 27 10 16
11 25 3 33 -6 6 -11 22 -10 36 l1 26 8 -25 c7 -21 8 -22 10 -5 1 11 4 14 7 8
8 -22 23 -14 23 11 0 20 -4 23 -22 18 -18 -4 -20 -2 -14 13 4 11 2 22 -6 27
-9 5 -8 8 6 8 12 0 16 5 12 16 -3 9 -6 25 -6 36 0 17 -4 19 -26 14 -16 -4 -35
-1 -48 7 -31 20 -61 26 -80 15 -13 -7 -16 -26 -16 -104 0 -75 -3 -96 -15 -100
-10 -4 -15 -20 -15 -45 0 -32 8 -48 39 -82 56 -61 71 -137 32 -162 -6 -3 -23
-29 -37 -57 -24 -48 -24 -50 -7 -63 15 -11 21 -11 34 1 8 8 21 14 27 14 7 0
12 4 12 10 0 5 7 7 15 4 11 -5 17 3 21 24 8 37 33 50 52 25 11 -15 10 -20 -4
-30 -9 -6 -22 -9 -30 -6 -18 7 -18 3 2 -37 14 -27 18 -30 26 -16 11 20 34 21
41 2 7 -17 -27 -28 -60 -20 -14 4 -23 2 -23 -6 0 -6 9 -14 20 -17 13 -3 20
-14 20 -29 0 -17 -6 -24 -20 -24 -16 0 -20 -7 -20 -30 0 -33 14 -40 24 -13 5
13 9 14 19 4 9 -10 7 -16 -11 -31 -19 -16 -22 -25 -17 -51 7 -30 6 -31 -19
-27 -24 5 -26 3 -26 -33 0 -28 -4 -39 -15 -39 -8 0 -15 -7 -15 -15 0 -9 9 -15
25 -15 20 0 24 -4 23 -25 -2 -19 -8 -25 -25 -25 -19 0 -23 -5 -23 -30 0 -20
-5 -30 -15 -30 -9 0 -15 -9 -15 -25 0 -30 7 -31 33 -7 19 17 20 16 15 -15 l-4
-32 603 -1 603 0 1 25 c1 14 2 38 3 54 1 27 -13 35 -30 18 -13 -13 -73 -7 -86
9 -7 8 -21 24 -30 34 -13 14 -14 21 -5 29 14 11 14 78 -1 93 -6 6 -15 2 -25
-12 -15 -22 -15 -22 -22 9 -5 23 -12 31 -29 31 -12 0 -31 7 -42 15 -18 13 -17
14 14 21 38 8 37 29 -2 29 -15 0 -31 7 -36 15 -8 13 -13 13 -30 2 -27 -16 -43
-6 -37 24 3 19 -1 24 -22 27 l-26 4 26 2 c31 1 50 41 20 41 -10 0 -21 -3 -25
-7 -9 -9 -38 -13 -48 -7 -5 3 -4 12 3 20 6 8 8 15 3 15 -5 1 -13 2 -19 4 -5 1
-25 3 -42 3 -18 1 -33 7 -33 13 0 7 11 9 28 6 38 -7 64 4 52 23 -8 12 -10 12
-16 -3 -11 -30 -24 -18 -24 23 0 23 -5 40 -11 40 -8 0 -8 5 1 15 7 8 19 15 26
15 8 0 14 4 14 9 0 10 -121 111 -132 111 -4 0 -10 -11 -14 -25 -7 -28 -19 -32
-28 -9 -10 27 -7 44 9 44 22 0 19 7 -18 40 -19 16 -47 48 -63 72 -16 24 -39
51 -51 61 -12 10 -21 23 -19 30 1 7 1 8 -2 4 -5 -11 -42 22 -42 38 0 14 -35
56 -47 56 -4 0 -7 14 -6 32 1 18 -1 26 -3 20 -13 -30 -38 1 -50 61 -4 22 -14
34 -14 17 0 -8 -8 -6 -25 5 -15 10 -25 12 -25 5 0 -16 -27 -13 -34 4 -3 10 1
15 13 15 28 0 31 10 16 47 -8 19 -12 46 -9 59 5 19 3 23 -10 18 -11 -4 -16 0
-16 14 0 26 -27 36 -35 13z m115 -234 c0 -7 -7 -22 -15 -33 -14 -18 -14 -18
-15 7 0 14 3 29 7 32 11 11 23 8 23 -6z m-47 -88 c4 1 6 -2 5 -6 -3 -7 -29 -5
-37 3 -2 2 0 11 4 21 7 17 7 17 14 0 4 -10 10 -18 14 -18z m117 -8 c0 -11 -5
-23 -11 -27 -14 -8 -29 14 -22 33 8 20 33 16 33 -6z m-60 -61 c0 -5 -9 -14
-20 -20 -17 -9 -20 -8 -20 10 0 13 7 20 20 20 11 0 20 -4 20 -10z m-40 -90 c0
-4 -46 -5 -67 -1 -3 0 2 10 11 20 16 18 19 18 37 3 10 -9 19 -19 19 -22z m159
26 c24 5 31 3 31 -9 0 -21 -32 -30 -65 -17 -14 5 -31 8 -36 4 -11 -6 -11 -2
-3 20 4 12 11 13 24 6 10 -5 32 -7 49 -4z m76 -84 c-11 -2 -26 -9 -32 -14 -17
-13 -17 -1 -1 16 7 7 22 10 33 7 20 -5 20 -5 0 -9z m-315 -3 c0 -5 5 -7 10 -4
6 3 10 0 10 -8 0 -10 -8 -13 -25 -9 -25 4 -31 13 -18 25 10 10 23 8 23 -4z
m144 5 c9 -3 16 -13 16 -21 0 -12 -3 -13 -15 -3 -9 7 -26 9 -45 5 -18 -4 -30
-3 -30 3 0 18 44 28 74 16z m34 -82 c-10 -2 -18 -10 -18 -18 0 -15 -12 -19
-23 -8 -10 11 34 45 47 37 7 -5 5 -9 -6 -11z m-112 -1 c-4 -5 0 -12 6 -14 8
-3 6 -6 -4 -6 -10 -1 -18 3 -18 8 0 5 -10 12 -22 14 -16 3 -13 5 10 6 18 0 31
-3 28 -8z m344 -7 c0 -9 -7 -14 -17 -12 -25 5 -28 28 -4 28 12 0 21 -6 21 -16z
m-478 -64 c3 -16 3 -30 2 -30 -27 0 -45 36 -27 53 13 14 21 6 25 -23z m56 1
c3 -10 0 -12 -13 -7 -13 4 -16 2 -11 -9 3 -8 1 -15 -4 -15 -6 0 -10 12 -10 26
0 18 5 25 17 22 9 -2 18 -9 21 -17z m107 -7 c-14 -7 -29 -16 -35 -19 -5 -3
-10 1 -10 9 0 9 7 16 15 16 8 0 15 4 15 9 0 5 9 7 20 4 20 -5 19 -6 -5 -19z
m284 12 c-2 -2 -18 -8 -34 -11 -21 -5 -27 -4 -20 3 6 5 19 12 30 14 20 4 32 1
24 -6z m-79 -16 c0 -5 -3 -10 -7 -10 -5 0 -19 -3 -33 -6 -24 -5 -24 -5 -6 10
22 18 46 21 46 6z m-262 -53 c8 -9 3 -15 -24 -23 -19 -6 -34 -7 -34 -3 0 5 5
9 10 9 6 0 10 7 10 15 0 18 24 20 38 2z m142 -8 c0 -5 -9 -9 -21 -9 -11 0 -17
-4 -14 -10 3 -5 1 -10 -4 -10 -16 0 -13 11 7 30 17 17 32 17 32 -1z m256 -9
c19 0 34 -4 34 -10 0 -5 -18 -10 -39 -10 -22 0 -47 -3 -57 -7 -16 -6 -16 -4 2
19 10 15 21 22 22 17 2 -5 19 -9 38 -9z m-325 -60 c5 0 9 -5 9 -10 0 -6 -11
-8 -25 -4 -15 4 -25 2 -25 -5 0 -6 -10 -11 -22 -11 -21 0 -21 0 2 20 13 12 30
18 38 15 7 -3 18 -5 23 -5z m184 -10 c3 -5 1 -10 -4 -10 -6 0 -11 5 -11 10 0
6 2 10 4 10 3 0 8 -4 11 -10z m-282 -63 c4 3 7 2 7 -3 0 -5 -12 -14 -26 -21
-22 -10 -25 -10 -20 3 3 9 6 20 6 26 0 7 5 7 13 -1 8 -6 17 -8 20 -4z m147 -7
c0 -5 -6 -10 -14 -10 -8 0 -17 -7 -20 -16 -4 -9 -9 -14 -13 -10 -7 7 25 46 39
46 4 0 8 -4 8 -10z m240 -20 c0 -5 -4 -10 -10 -10 -5 0 -10 5 -10 10 0 6 5 10
10 10 6 0 10 -4 10 -10z m-300 -70 c0 -4 -16 -4 -35 -2 -28 3 -33 7 -25 17 8
10 16 10 35 1 14 -6 25 -13 25 -16z m170 6 c0 -2 -7 -7 -16 -10 -8 -3 -12 -2
-9 4 6 10 25 14 25 6z m-260 -65 c0 -5 -13 -11 -30 -13 -20 -3 -30 0 -30 9 0
8 12 13 30 13 17 0 30 -4 30 -9z m140 -7 c0 -8 -5 -12 -10 -9 -6 4 -19 1 -28
-6 -13 -11 -12 -8 2 9 22 26 36 28 36 6z m-243 -79 c-7 -13 -14 -19 -16 -14
-2 7 -7 6 -12 -2 -7 -11 -9 -10 -9 5 0 19 29 48 41 40 4 -2 2 -15 -4 -29z
m183 6 c0 -5 -20 -11 -44 -12 -35 -3 -42 -1 -34 8 12 15 78 18 78 4z m33 -78
c-7 -2 -19 -2 -25 0 -7 3 -2 5 12 5 14 0 19 -2 13 -5z m-225 -63 c3 -7 0 -10
-7 -6 -6 4 -11 2 -11 -3 0 -6 -7 -11 -15 -11 -18 0 -19 6 -2 25 14 16 29 15
35 -5z"/>
<path d="M2670 1366 c0 -2 7 -7 16 -10 8 -3 12 -2 9 4 -6 10 -25 14 -25 6z"/>
<path d="M982 1340 c1 -13 9 -25 16 -28 17 -5 15 23 -4 39 -14 11 -15 10 -12
-11z"/>
<path d="M2805 1331 c-3 -5 -1 -12 5 -16 5 -3 10 1 10 9 0 18 -6 21 -15 7z"/>
<path d="M2862 1331 c2 -7 7 -12 11 -12 12 1 9 15 -3 20 -7 2 -11 -2 -8 -8z"/>
<path d="M2953 1304 c0 -16 13 -19 21 -5 3 5 0 11 -7 14 -8 3 -14 -1 -14 -9z"/>
<path d="M4968 1288 c-3 -7 0 -22 8 -33 19 -26 24 -16 9 19 -8 19 -14 24 -17
14z"/>
<path d="M930 1276 c0 -9 5 -16 10 -16 6 0 10 4 10 9 0 6 -4 13 -10 16 -5 3
-10 -1 -10 -9z"/>
<path d="M2835 1280 c-3 -5 -1 -10 4 -10 6 0 11 5 11 10 0 6 -2 10 -4 10 -3 0
-8 -4 -11 -10z"/>
<path d="M2770 1263 c0 -13 5 -23 10 -23 13 0 13 11 0 30 -8 12 -10 11 -10 -7z"/>
<path d="M2885 1270 c-4 -6 5 -10 20 -10 15 0 24 4 20 10 -3 6 -12 10 -20 10
-8 0 -17 -4 -20 -10z"/>
<path d="M2963 1263 c-7 -3 -13 -14 -13 -26 0 -20 1 -20 16 -5 18 18 16 37 -3
31z"/>
<path d="M950 1221 c0 -11 7 -26 15 -35 8 -8 15 -19 15 -24 0 -13 46 -53 53
-46 3 3 -8 33 -24 65 -30 58 -59 78 -59 40z"/>
<path d="M2800 1229 c0 -5 5 -7 10 -4 6 3 10 8 10 11 0 2 -4 4 -10 4 -5 0 -10
-5 -10 -11z"/>
<path d="M2820 1193 c0 -22 2 -25 10 -13 13 20 13 40 0 40 -5 0 -10 -12 -10
-27z"/>
<path d="M2890 1211 c0 -17 18 -21 24 -6 3 9 0 15 -9 15 -8 0 -15 -4 -15 -9z"/>
<path d="M4110 1205 c-19 -23 -15 -64 9 -86 11 -11 21 -23 21 -27 0 -11 69
-87 74 -82 2 3 0 46 -6 95 -9 83 -12 92 -36 103 -34 16 -47 15 -62 -3z"/>
<path d="M5080 1196 c0 -21 16 -28 29 -12 9 11 8 15 -5 20 -22 8 -24 8 -24 -8z"/>
<path d="M2949 1189 c16 -6 28 -6 35 1 7 7 -1 10 -24 9 -33 0 -34 -1 -11 -10z"/>
<path d="M2860 1171 c0 -6 5 -13 10 -16 6 -3 10 1 10 9 0 9 -4 16 -10 16 -5 0
-10 -4 -10 -9z"/>
<path d="M2780 1141 c-7 -15 -7 -21 0 -21 12 0 25 28 17 36 -3 3 -10 -4 -17
-15z"/>
<path d="M2934 1145 c-17 -13 -17 -14 -2 -15 9 0 20 5 23 11 11 17 0 20 -21 4z"/>
<path d="M2836 1123 c-5 -6 18 -33 28 -33 3 0 6 6 6 14 0 15 -24 28 -34 19z"/>
<path d="M2793 1098 c-11 -19 -3 -72 13 -81 8 -4 14 -15 14 -22 0 -8 5 -15 10
-15 6 0 10 11 10 25 0 16 6 25 15 25 17 0 19 9 5 30 -8 13 -10 13 -10 -1 0
-25 -24 -41 -38 -27 -15 15 -16 48 -2 48 6 0 10 7 10 15 0 18 -16 20 -27 3z"/>
<path d="M1045 1090 c-4 -7 2 -22 14 -33 15 -16 21 -18 21 -7 -1 24 -27 53
-35 40z"/>
<path d="M2912 1093 c-6 -2 -10 -9 -7 -13 7 -11 35 -2 35 11 0 10 -8 10 -28 2z"/>
<path d="M1166 1025 c4 -8 10 -15 15 -15 4 0 6 7 3 15 -4 8 -10 15 -15 15 -4
0 -6 -7 -3 -15z"/>
<path d="M2276 1023 c6 -23 64 -27 64 -6 0 10 -6 12 -20 8 -11 -4 -20 -2 -20
4 0 6 -6 11 -14 11 -9 0 -12 -7 -10 -17z"/>
<path d="M2260 984 c-6 -6 -7 -14 -3 -17 3 -4 -1 -7 -10 -7 -9 0 -17 -4 -17
-10 0 -5 4 -10 9 -10 6 0 13 5 16 10 3 6 19 10 35 10 22 0 27 4 23 18 -5 20
-39 24 -53 6z"/>
<path d="M2337 983 c-4 -3 -7 -17 -7 -31 0 -20 -4 -23 -24 -18 -20 5 -25 1
-29 -22 -3 -15 0 -30 6 -34 19 -12 27 -9 21 7 -4 8 -1 15 6 15 6 0 8 -4 5 -10
-8 -13 8 -13 21 -1 5 5 20 11 33 13 31 4 41 28 12 28 -17 0 -21 6 -21 30 0 29
-9 38 -23 23z"/>
<path d="M5090 960 c0 -23 8 -24 44 -10 37 14 32 30 -9 30 -28 0 -35 -4 -35
-20z"/>
<path d="M1180 926 c0 -2 9 -15 20 -28 11 -12 28 -34 38 -47 10 -13 24 -22 31
-20 7 3 -7 24 -33 52 -41 43 -56 54 -56 43z"/>
<path d="M2320 865 c-7 -9 -10 -18 -6 -22 3 -3 6 -1 6 5 0 7 9 12 21 12 11 0
17 -4 14 -10 -3 -5 -2 -10 3 -10 12 0 23 26 15 34 -11 11 -40 6 -53 -9z"/>
<path d="M3458 863 c7 -3 16 -2 19 1 4 3 -2 6 -13 5 -11 0 -14 -3 -6 -6z"/>
<path d="M2091 824 c0 -11 3 -14 6 -6 3 7 2 16 -1 19 -3 4 -6 -2 -5 -13z"/>
<path d="M2325 832 c-6 -4 -12 -23 -13 -41 -2 -19 1 -32 4 -28 4 4 15 -5 25
-19 12 -18 19 -22 24 -13 5 7 1 17 -8 24 -21 15 -21 20 -1 39 13 14 13 16 0
16 -8 0 -16 7 -18 15 -2 8 -8 11 -13 7z"/>
<path d="M4927 774 c-8 -8 20 -64 32 -64 4 0 8 16 9 35 1 28 -2 35 -17 35 -10
0 -20 -3 -24 -6z"/>
<path d="M5130 771 c0 -11 25 -21 51 -21 10 0 19 -4 19 -10 0 -5 8 -10 18 -10
13 0 10 6 -13 25 -29 24 -75 34 -75 16z"/>
<path d="M5037 643 c-4 -4 -29 -10 -55 -14 -108 -16 -350 -50 -389 -55 -45 -6
-52 -14 -29 -34 23 -19 50 -110 37 -123 -8 -8 -16 -5 -31 11 -23 24 -44 29
-37 10 2 -7 8 -13 14 -13 6 0 42 -31 79 -68 75 -74 130 -111 183 -122 l33 -7
-21 21 c-23 23 -27 41 -10 41 5 0 7 4 4 10 -4 6 1 7 11 3 13 -5 15 -2 9 17 -6
20 -4 22 18 18 27 -5 47 17 47 53 0 31 35 54 130 85 47 16 88 33 92 39 4 5 8
0 8 -12 0 -30 32 -23 43 10 7 22 3 31 -27 61 -19 20 -39 36 -44 36 -5 0 -17 9
-27 20 -19 21 -28 24 -38 13z"/>
<path d="M2450 605 c-7 -8 -8 -15 -2 -15 5 0 15 7 22 15 7 8 8 15 2 15 -5 0
-15 -7 -22 -15z"/>
<path d="M1406 586 c8 -22 36 -30 32 -9 -2 10 -11 19 -21 21 -12 2 -15 -1 -11
-12z"/>
<path d="M1516 585 c4 -8 10 -15 15 -15 4 0 6 7 3 15 -4 8 -10 15 -15 15 -4 0
-6 -7 -3 -15z"/>
<path d="M2430 570 c0 -5 5 -10 11 -10 5 0 7 5 4 10 -3 6 -8 10 -11 10 -2 0
-4 -4 -4 -10z"/>
<path d="M2142 520 c0 -14 2 -19 5 -12 2 6 2 18 0 25 -3 6 -5 1 -5 -13z"/>
<path d="M5187 523 c-4 -3 -7 -16 -6 -27 0 -19 1 -19 10 3 10 24 8 36 -4 24z"/>
<path d="M1490 506 c0 -18 23 -27 41 -15 11 7 11 9 1 9 -7 0 -10 5 -7 10 3 6
-3 10 -14 10 -12 0 -21 -6 -21 -14z"/>
<path d="M5290 467 c-14 -12 -39 -32 -55 -44 l-30 -22 37 -38 c21 -21 52 -47
70 -57 l32 -19 -22 35 c-24 39 -30 126 -10 146 22 22 3 21 -22 -1z"/>
<path d="M2151 395 c1 -104 11 -177 25 -182 7 -2 15 12 18 32 4 20 10 43 12
50 4 10 0 12 -15 8 -25 -6 -26 -1 -5 40 12 21 13 32 5 35 -6 2 -11 12 -11 22
0 10 -7 31 -15 46 -14 28 -15 26 -14 -51z"/>
<path d="M1562 426 c-11 -25 -2 -30 24 -14 6 4 21 -4 33 -18 12 -14 26 -22 32
-18 12 7 -48 74 -66 74 -7 0 -17 -11 -23 -24z"/>
<path d="M3833 436 c-28 -13 -29 -22 -5 -28 12 -3 22 3 29 18 12 26 9 27 -24
10z"/>
<path d="M3887 423 c-4 -7 -5 -24 -1 -39 6 -24 5 -25 -15 -15 -17 10 -21 9
-21 -4 0 -9 6 -23 14 -31 17 -16 30 -19 21 -4 -4 6 -2 17 5 25 6 7 10 29 8 47
-2 20 -6 28 -11 21z"/>
<path d="M2355 389 c-36 -35 -19 -40 18 -5 14 13 29 21 33 17 4 -3 4 0 0 7
-10 17 -17 15 -51 -19z"/>
<path d="M4005 410 c-11 -5 -36 -11 -56 -15 -31 -5 -37 -9 -35 -30 1 -20 5
-24 21 -19 11 4 24 10 30 15 5 5 35 9 66 9 41 0 58 4 62 15 5 11 0 13 -23 8
-23 -4 -30 -2 -30 11 0 18 -6 19 -35 6z"/>
<path d="M4126 395 c15 -23 15 -25 -1 -25 -14 0 -15 -3 -5 -15 7 -8 19 -15 26
-15 8 0 14 -3 14 -7 0 -5 12 -16 25 -26 24 -17 26 -17 43 -1 16 17 16 17 -6
12 -19 -5 -26 0 -43 38 -12 24 -27 44 -35 44 -8 0 -14 5 -14 10 0 6 -5 10 -10
10 -6 0 -3 -11 6 -25z"/>
<path d="M645 361 c-3 -5 -1 -12 5 -16 12 -7 30 2 30 16 0 12 -27 12 -35 0z"/>
<path d="M4030 351 c0 -6 -9 -11 -21 -11 -11 0 -17 -4 -14 -10 4 -6 -10 -10
-34 -10 -31 0 -41 -4 -46 -21 -9 -27 -6 -29 46 -33 48 -4 94 16 64 28 -9 3
-13 10 -10 16 11 18 42 11 53 -12 11 -22 12 -22 9 6 -2 28 -47 73 -47 47z"/>
<path d="M1680 336 c0 -14 29 -31 38 -22 2 3 2 12 -1 21 -8 19 -37 20 -37 1z"/>
<path d="M1647 319 c7 -7 15 -10 18 -7 3 3 -2 9 -12 12 -14 6 -15 5 -6 -5z"/>
<path d="M8668 313 c7 -3 16 -2 19 1 4 3 -2 6 -13 5 -11 0 -14 -3 -6 -6z"/>
<path d="M4228 272 c-16 -2 -28 -10 -28 -18 0 -9 -11 -14 -31 -14 -19 0 -28
-4 -23 -11 3 -6 16 -8 29 -5 13 3 35 0 50 -8 27 -14 55 -12 55 4 0 5 -9 6 -20
3 -24 -6 -26 4 -4 28 18 20 10 26 -28 21z"/>
<path d="M4080 261 c0 -5 -8 -12 -17 -14 -11 -3 -7 -5 10 -6 18 -1 27 4 27 14
0 8 -4 15 -10 15 -5 0 -10 -4 -10 -9z"/>
<path d="M7780 261 c0 -11 26 -22 34 -14 12 12 5 23 -14 23 -11 0 -20 -4 -20
-9z"/>
<path d="M1770 230 c0 -11 7 -20 15 -20 8 0 15 6 15 14 0 8 -7 16 -15 20 -10
4 -15 -1 -15 -14z"/>
<path d="M7731 241 c-23 -15 -24 -51 -2 -51 21 0 51 25 51 43 0 6 -6 2 -14 -9
-8 -11 -18 -15 -23 -10 -4 5 -2 11 5 13 13 5 17 23 5 23 -5 0 -14 -4 -22 -9z"/>
<path d="M7958 243 c7 -3 16 -2 19 1 4 3 -2 6 -13 5 -11 0 -14 -3 -6 -6z"/>
<path d="M5061 228 c0 -7 6 -40 13 -73 12 -54 14 -57 21 -32 8 30 -12 117 -26
117 -5 0 -9 -6 -8 -12z"/>
<path d="M9843 220 c-4 -13 -14 -20 -30 -20 -15 0 -36 -12 -53 -30 -24 -26
-35 -30 -80 -30 -50 0 -80 -15 -80 -39 0 -7 -24 -11 -59 -11 -32 0 -73 -3 -90
-6 -28 -6 -31 -10 -31 -45 l0 -39 339 0 339 0 6 31 c11 55 7 89 -9 89 -11 0
-15 11 -15 40 l0 40 -80 0 c-73 0 -80 2 -80 20 0 16 -7 20 -36 20 -27 0 -37
-5 -41 -20z"/>
<path d="M8086 221 c-5 -7 2 -11 16 -11 26 -1 61 -24 51 -33 -11 -11 -65 -8
-58 3 4 6 -8 10 -30 10 -22 0 -34 -4 -30 -10 3 -5 13 -10 22 -10 9 0 25 -7 35
-17 12 -10 18 -12 18 -4 0 7 5 9 10 6 12 -7 70 16 70 27 0 5 -4 8 -9 8 -5 0
-16 7 -24 15 -20 19 -63 29 -71 16z"/>
<path d="M7605 200 c-3 -5 -1 -10 4 -10 6 0 11 5 11 10 0 6 -2 10 -4 10 -3 0
-8 -4 -11 -10z"/>
<path d="M8915 190 c10 -11 23 -20 28 -20 6 0 2 9 -8 20 -10 11 -23 20 -28 20
-6 0 -2 -9 8 -20z"/>
<path d="M48 178 l-48 -10 0 -84 0 -84 116 0 117 0 -6 80 c-3 45 -11 87 -17
95 -14 17 -88 18 -162 3z"/>
<path d="M1761 174 c0 -11 3 -14 6 -6 3 7 2 16 -1 19 -3 4 -6 -2 -5 -13z"/>
<path d="M7950 180 c0 -5 7 -10 15 -10 8 0 15 5 15 10 0 6 -7 10 -15 10 -8 0
-15 -4 -15 -10z"/>
<path d="M7857 173 c-15 -2 -40 -11 -55 -19 l-27 -14 38 0 c20 0 37 5 37 10 0
6 9 10 20 10 11 0 20 5 20 10 0 6 -1 9 -2 9 -2 -1 -15 -4 -31 -6z"/>
<path d="M1840 160 c0 -5 7 -10 15 -10 8 0 15 5 15 10 0 6 -7 10 -15 10 -8 0
-15 -4 -15 -10z"/>
<path d="M1900 135 c0 -4 16 -28 36 -52 20 -25 33 -50 30 -58 -6 -17 20 -20
44 -5 12 7 8 15 -20 42 -62 59 -90 82 -90 73z"/>
<path d="M8017 126 c-16 -13 -16 -14 -1 -20 9 -4 17 -5 18 -4 1 2 8 11 15 21
11 14 11 17 0 17 -8 0 -22 -7 -32 -14z"/>
<path d="M7950 90 c0 -20 5 -30 15 -30 13 0 14 4 5 20 -6 11 -8 25 -5 30 3 6
1 10 -4 10 -6 0 -11 -13 -11 -30z"/>
<path d="M9006 83 c15 -21 31 -40 34 -43 4 -3 9 -13 13 -23 3 -9 11 -17 17
-17 11 0 14 20 3 20 -5 0 -24 23 -43 50 -19 27 -39 50 -44 50 -4 0 4 -17 20
-37z"/>
<path d="M4098 81 c-26 -22 -18 -51 15 -51 27 0 47 17 47 41 0 24 -36 30 -62
10z"/>
<path d="M4022 75 c-7 -8 -8 -15 -3 -15 5 0 11 -10 13 -22 l3 -23 13 22 c11
20 7 53 -7 53 -3 -1 -12 -7 -19 -15z"/>
<path d="M4183 59 c-19 -7 -20 -11 -10 -32 9 -20 13 -22 25 -11 7 8 12 22 10
33 -2 15 -8 17 -25 10z"/>
<path d="M3936 40 c-10 -10 -15 -23 -12 -29 10 -15 56 -10 56 6 0 7 5 13 10
13 6 0 10 7 10 15 0 21 -41 18 -64 -5z"/>
<path d="M4230 30 c0 -12 5 -17 13 -14 8 3 14 11 14 19 0 8 -6 15 -14 15 -7 0
-13 -9 -13 -20z"/>
<path d="M5742 20 c0 -14 2 -19 5 -12 2 6 2 18 0 25 -3 6 -5 1 -5 -13z"/>
<path d="M4275 10 c-13 -6 -15 -9 -5 -9 8 0 22 4 30 9 18 12 2 12 -25 0z"/>
<path d="M578 3 c7 -3 16 -2 19 1 4 3 -2 6 -13 5 -11 0 -14 -3 -6 -6z"/>
</g>
</svg>
